ply
format ascii 1.0
comment Created by Blender 2.78 (sub 0) - www.blender.org, source file: 'Free3D-LP-Pipes.blend'
element vertex 96
property float x
property float y
property float z
property float nx
property float ny
property float nz
element face 30
property list uchar uint vertex_indices
end_header
-0.100000 -0.173205 0.100000 -0.866024 -0.499985 0.000000
-0.100000 -0.173205 0.900000 -0.866024 -0.499985 0.000000
-0.200000 0.000000 0.900000 -0.866024 -0.499985 0.000000
-0.200000 -0.000000 0.100000 -0.866024 -0.499985 0.000000
0.100000 -0.173205 0.100000 0.000000 -1.000000 0.000000
0.100000 -0.173205 0.900000 0.000000 -1.000000 0.000000
-0.100000 -0.173205 0.900000 0.000000 -1.000000 0.000000
-0.100000 -0.173205 0.100000 0.000000 -1.000000 0.000000
0.200000 0.000000 0.100000 0.866024 -0.499985 0.000000
0.200000 0.000000 0.900000 0.866024 -0.499985 0.000000
0.100000 -0.173205 0.900000 0.866024 -0.499985 0.000000
0.100000 -0.173205 0.100000 0.866024 -0.499985 0.000000
0.100000 0.173205 0.100000 0.866024 0.499985 0.000000
0.100000 0.173205 0.900000 0.866024 0.499985 0.000000
0.200000 0.000000 0.900000 0.866024 0.499985 0.000000
0.200000 0.000000 0.100000 0.866024 0.499985 0.000000
-0.100000 0.173205 0.100000 0.000000 1.000000 0.000000
-0.100000 0.173205 0.900000 0.000000 1.000000 0.000000
0.100000 0.173205 0.900000 0.000000 1.000000 0.000000
0.100000 0.173205 0.100000 0.000000 1.000000 0.000000
-0.200000 -0.000000 0.100000 -0.866024 0.499985 0.000000
-0.200000 0.000000 0.900000 -0.866024 0.499985 0.000000
-0.100000 0.173205 0.900000 -0.866024 0.499985 0.000000
-0.100000 0.173205 0.100000 -0.866024 0.499985 0.000000
0.100000 -0.173205 0.900000 0.000000 0.000000 -1.000000
0.200000 0.000000 0.900000 0.000000 0.000000 -1.000000
0.220000 0.000000 0.900000 0.000000 0.000000 -1.000000
0.110000 -0.190525 0.900000 0.000000 0.000000 -1.000000
0.100000 0.173205 0.900000 0.000000 0.000000 -1.000000
-0.100000 0.173205 0.900000 0.000000 0.000000 -1.000000
-0.110000 0.190526 0.900000 0.000000 0.000000 -1.000000
0.110000 0.190526 0.900000 0.000000 0.000000 -1.000000
-0.200000 0.000000 0.900000 0.000000 0.000000 -1.000000
-0.220000 0.000000 0.900000 0.000000 0.000000 -1.000000
-0.100000 -0.173205 0.900000 0.000000 0.000000 -1.000000
-0.110000 -0.190525 0.900000 0.000000 0.000000 -1.000000
0.220000 0.000000 0.900000 0.866024 0.499985 0.000000
0.110000 0.190526 0.900000 0.866024 0.499985 0.000000
0.110000 0.190526 1.000000 0.866024 0.499985 0.000000
0.220000 0.000000 1.000000 0.866024 0.499985 0.000000
-0.220000 0.000000 0.900000 -0.866024 -0.499985 0.000000
-0.110000 -0.190525 0.900000 -0.866024 -0.499985 0.000000
-0.110000 -0.190525 1.000000 -0.866024 -0.499985 0.000000
-0.220000 0.000000 1.000000 -0.866024 -0.499985 0.000000
0.110000 -0.190525 0.900000 0.866024 -0.499985 0.000000
0.220000 0.000000 0.900000 0.866024 -0.499985 0.000000
0.220000 0.000000 1.000000 0.866024 -0.499985 0.000000
0.110000 -0.190525 1.000000 0.866024 -0.499985 0.000000
-0.110000 -0.190525 0.900000 0.000000 -1.000000 0.000000
0.110000 -0.190525 0.900000 0.000000 -1.000000 0.000000
0.110000 -0.190525 1.000000 0.000000 -1.000000 0.000000
-0.110000 -0.190525 1.000000 0.000000 -1.000000 0.000000
0.110000 0.190526 0.900000 0.000000 1.000000 0.000000
-0.110000 0.190526 0.900000 0.000000 1.000000 0.000000
-0.110000 0.190526 1.000000 0.000000 1.000000 0.000000
0.110000 0.190526 1.000000 0.000000 1.000000 0.000000
-0.110000 0.190526 0.900000 -0.866024 0.499985 0.000000
-0.220000 0.000000 0.900000 -0.866024 0.499985 0.000000
-0.220000 0.000000 1.000000 -0.866024 0.499985 0.000000
-0.110000 0.190526 1.000000 -0.866024 0.499985 0.000000
-0.200000 -0.000000 0.100000 0.000000 0.000000 1.000000
-0.100000 0.173205 0.100000 0.000000 0.000000 1.000000
-0.110000 0.190526 0.100000 0.000000 0.000000 1.000000
-0.220000 -0.000000 0.100000 0.000000 0.000000 1.000000
0.100000 0.173205 0.100000 0.000000 0.000000 1.000000
0.200000 0.000000 0.100000 0.000000 0.000000 1.000000
0.220000 0.000000 0.100000 0.000000 0.000000 1.000000
0.110000 0.190526 0.100000 0.000000 0.000000 1.000000
-0.100000 -0.173205 0.100000 0.000000 0.000000 1.000000
-0.110000 -0.190526 0.100000 0.000000 0.000000 1.000000
0.100000 -0.173205 0.100000 0.000000 0.000000 1.000000
0.110000 -0.190526 0.100000 0.000000 0.000000 1.000000
-0.220000 -0.000000 0.100000 -0.866024 0.499985 0.000000
-0.110000 0.190526 0.100000 -0.866024 0.499985 0.000000
-0.110000 0.190526 -0.000000 -0.866024 0.499985 0.000000
-0.220000 -0.000000 0.000000 -0.866024 0.499985 0.000000
-0.110000 0.190526 0.100000 0.000000 1.000000 0.000000
0.110000 0.190526 0.100000 0.000000 1.000000 0.000000
0.110000 0.190526 -0.000000 0.000000 1.000000 0.000000
-0.110000 0.190526 -0.000000 0.000000 1.000000 0.000000
-0.110000 -0.190526 0.100000 -0.866024 -0.499985 0.000000
-0.220000 -0.000000 0.100000 -0.866024 -0.499985 0.000000
-0.220000 -0.000000 0.000000 -0.866024 -0.499985 0.000000
-0.110000 -0.190526 0.000000 -0.866024 -0.499985 0.000000
0.110000 -0.190526 0.100000 0.000000 -1.000000 0.000000
-0.110000 -0.190526 0.100000 0.000000 -1.000000 0.000000
-0.110000 -0.190526 0.000000 0.000000 -1.000000 0.000000
0.110000 -0.190526 0.000000 0.000000 -1.000000 0.000000
0.220000 0.000000 0.100000 0.866024 -0.499985 0.000000
0.110000 -0.190526 0.100000 0.866024 -0.499985 0.000000
0.110000 -0.190526 0.000000 0.866024 -0.499985 0.000000
0.220000 0.000000 -0.000000 0.866024 -0.499985 0.000000
0.110000 0.190526 0.100000 0.866024 0.499985 0.000000
0.220000 0.000000 0.100000 0.866024 0.499985 0.000000
0.220000 0.000000 -0.000000 0.866024 0.499985 0.000000
0.110000 0.190526 -0.000000 0.866024 0.499985 0.000000
4 0 1 2 3
4 4 5 6 7
4 8 9 10 11
4 12 13 14 15
4 16 17 18 19
4 20 21 22 23
4 24 25 26 27
4 28 29 30 31
4 25 28 31 26
4 29 32 33 30
4 34 24 27 35
4 32 34 35 33
4 36 37 38 39
4 40 41 42 43
4 44 45 46 47
4 48 49 50 51
4 52 53 54 55
4 56 57 58 59
4 60 61 62 63
4 64 65 66 67
4 68 60 63 69
4 65 70 71 66
4 61 64 67 62
4 70 68 69 71
4 72 73 74 75
4 76 77 78 79
4 80 81 82 83
4 84 85 86 87
4 88 89 90 91
4 92 93 94 95
